<svg width="187" height="25" viewBox="0 0 187 25" fill="none" xmlns="http://www.w3.org/2000/svg">
<path d="M3.608 19C3 19 2.44 18.848 1.928 18.544C1.432 18.24 1.032 17.84 0.728 17.344C0.424 16.832 0.272 16.272 0.272 15.664V14.344H3.44V15.52C3.44 15.6 3.464 15.672 3.512 15.736C3.576 15.784 3.648 15.808 3.728 15.808H14.072C14.152 15.808 14.216 15.784 14.264 15.736C14.328 15.672 14.36 15.6 14.36 15.52V12.232C14.36 12.152 14.328 12.088 14.264 12.04C14.216 11.992 14.152 11.968 14.072 11.968H3.608C3 11.968 2.44 11.816 1.928 11.512C1.432 11.208 1.032 10.808 0.728 10.312C0.424 9.8 0.272 9.232 0.272 8.608V5.056C0.272 4.448 0.424 3.896 0.728 3.4C1.032 2.888 1.432 2.48 1.928 2.176C2.44 1.872 3 1.72 3.608 1.72H14.216C14.824 1.72 15.376 1.872 15.872 2.176C16.384 2.48 16.792 2.888 17.096 3.4C17.4 3.896 17.552 4.448 17.552 5.056V6.376H14.36V5.2C14.36 5.12 14.328 5.056 14.264 5.008C14.216 4.944 14.152 4.912 14.072 4.912H3.728C3.648 4.912 3.576 4.944 3.512 5.008C3.464 5.056 3.44 5.12 3.44 5.2V8.488C3.44 8.568 3.464 8.632 3.512 8.68C3.576 8.728 3.648 8.752 3.728 8.752H14.216C14.824 8.752 15.376 8.904 15.872 9.208C16.384 9.512 16.792 9.92 17.096 10.432C17.4 10.928 17.552 11.488 17.552 12.112V15.664C17.552 16.272 17.4 16.832 17.096 17.344C16.792 17.84 16.384 18.24 15.872 18.544C15.376 18.848 14.824 19 14.216 19H3.608ZM23.8921 19C23.2841 19 22.7321 18.848 22.2361 18.544C21.7401 18.24 21.3401 17.84 21.0361 17.344C20.7321 16.848 20.5801 16.296 20.5801 15.688V0.808H23.7241V5.08H29.1481V8.224H23.7241V15.568C23.7241 15.648 23.7481 15.72 23.7961 15.784C23.8601 15.832 23.9321 15.856 24.0121 15.856H29.1481V19H23.8921ZM34.8476 19C34.2396 19 33.6876 18.848 33.1916 18.544C32.6956 18.24 32.2956 17.84 31.9916 17.344C31.6876 16.848 31.5356 16.296 31.5356 15.688V8.392C31.5356 7.784 31.6876 7.232 31.9916 6.736C32.2956 6.24 32.6956 5.84 33.1916 5.536C33.6876 5.232 34.2396 5.08 34.8476 5.08H42.3596C42.9676 5.08 43.5196 5.232 44.0156 5.536C44.5276 5.84 44.9276 6.24 45.2156 6.736C45.5196 7.232 45.6716 7.784 45.6716 8.392V13.624H34.6796V15.568C34.6796 15.648 34.7036 15.72 34.7516 15.784C34.8156 15.832 34.8876 15.856 34.9676 15.856H45.6716V19H34.8476ZM34.6796 10.792H42.5276V8.512C42.5276 8.432 42.4956 8.368 42.4316 8.32C42.3836 8.256 42.3196 8.224 42.2396 8.224H34.9676C34.8876 8.224 34.8156 8.256 34.7516 8.32C34.7036 8.368 34.6796 8.432 34.6796 8.512V10.792ZM51.4062 19C50.7982 19 50.2462 18.848 49.7502 18.544C49.2542 18.24 48.8542 17.84 48.5502 17.344C48.2462 16.848 48.0942 16.296 48.0942 15.688V0.495999H51.2622V15.568C51.2622 15.648 51.2862 15.72 51.3342 15.784C51.3982 15.832 51.4702 15.856 51.5502 15.856H54.2142V19H51.4062ZM59.8784 19C59.2704 19 58.7184 18.848 58.2224 18.544C57.7264 18.24 57.3264 17.84 57.0224 17.344C56.7184 16.848 56.5664 16.296 56.5664 15.688V0.495999H59.7344V15.568C59.7344 15.648 59.7584 15.72 59.8064 15.784C59.8704 15.832 59.9424 15.856 60.0224 15.856H62.6864V19H59.8784ZM68.3038 19C67.6958 19 67.1358 18.848 66.6238 18.544C66.1278 18.24 65.7278 17.84 65.4238 17.344C65.1358 16.848 64.9918 16.296 64.9918 15.688V10.456H75.9838V8.512C75.9838 8.432 75.9518 8.368 75.8878 8.32C75.8398 8.256 75.7758 8.224 75.6958 8.224H64.9918V5.08H75.8158C76.4238 5.08 76.9758 5.232 77.4718 5.536C77.9838 5.84 78.3838 6.24 78.6718 6.736C78.9758 7.232 79.1278 7.784 79.1278 8.392V19H68.3038ZM68.4238 15.856H75.9838V13.288H68.1358V15.568C68.1358 15.648 68.1598 15.72 68.2078 15.784C68.2718 15.832 68.3438 15.856 68.4238 15.856ZM81.6436 19V8.392C81.6436 7.784 81.7956 7.232 82.0996 6.736C82.4036 6.24 82.8036 5.84 83.2996 5.536C83.8116 5.232 84.3636 5.08 84.9556 5.08H92.6836V8.224H85.0756C84.9956 8.224 84.9236 8.256 84.8596 8.32C84.8116 8.368 84.7876 8.432 84.7876 8.512V19H81.6436ZM105.839 19C105.231 19 104.671 18.848 104.159 18.544C103.663 18.24 103.263 17.84 102.959 17.344C102.655 16.832 102.503 16.272 102.503 15.664V14.344H105.671V15.52C105.671 15.6 105.695 15.672 105.743 15.736C105.807 15.784 105.879 15.808 105.959 15.808H116.303C116.383 15.808 116.447 15.784 116.495 15.736C116.559 15.672 116.591 15.6 116.591 15.52V12.232C116.591 12.152 116.559 12.088 116.495 12.04C116.447 11.992 116.383 11.968 116.303 11.968H105.839C105.231 11.968 104.671 11.816 104.159 11.512C103.663 11.208 103.263 10.808 102.959 10.312C102.655 9.8 102.503 9.232 102.503 8.608V5.056C102.503 4.448 102.655 3.896 102.959 3.4C103.263 2.888 103.663 2.48 104.159 2.176C104.671 1.872 105.231 1.72 105.839 1.72H116.447C117.055 1.72 117.607 1.872 118.103 2.176C118.615 2.48 119.023 2.888 119.327 3.4C119.631 3.896 119.783 4.448 119.783 5.056V6.376H116.591V5.2C116.591 5.12 116.559 5.056 116.495 5.008C116.447 4.944 116.383 4.912 116.303 4.912H105.959C105.879 4.912 105.807 4.944 105.743 5.008C105.695 5.056 105.671 5.12 105.671 5.2V8.488C105.671 8.568 105.695 8.632 105.743 8.68C105.807 8.728 105.879 8.752 105.959 8.752H116.447C117.055 8.752 117.607 8.904 118.103 9.208C118.615 9.512 119.023 9.92 119.327 10.432C119.631 10.928 119.783 11.488 119.783 12.112V15.664C119.783 16.272 119.631 16.832 119.327 17.344C119.023 17.84 118.615 18.24 118.103 18.544C117.607 18.848 117.055 19 116.447 19H105.839ZM122.835 24.52V5.08H133.659C134.267 5.08 134.819 5.232 135.315 5.536C135.827 5.84 136.227 6.24 136.515 6.736C136.819 7.232 136.971 7.784 136.971 8.392V15.688C136.971 16.296 136.819 16.848 136.515 17.344C136.227 17.84 135.827 18.24 135.315 18.544C134.819 18.848 134.267 19 133.659 19H125.979V24.52H122.835ZM126.267 15.856H133.539C133.619 15.856 133.683 15.832 133.731 15.784C133.795 15.72 133.827 15.648 133.827 15.568V8.512C133.827 8.432 133.795 8.368 133.731 8.32C133.683 8.256 133.619 8.224 133.539 8.224H126.267C126.187 8.224 126.115 8.256 126.051 8.32C126.003 8.368 125.979 8.432 125.979 8.512V15.568C125.979 15.648 126.003 15.72 126.051 15.784C126.115 15.832 126.187 15.856 126.267 15.856ZM142.516 19C141.908 19 141.348 18.848 140.836 18.544C140.34 18.24 139.94 17.84 139.636 17.344C139.348 16.848 139.204 16.296 139.204 15.688V10.456H150.196V8.512C150.196 8.432 150.164 8.368 150.1 8.32C150.052 8.256 149.988 8.224 149.908 8.224H139.204V5.08H150.028C150.636 5.08 151.188 5.232 151.684 5.536C152.196 5.84 152.596 6.24 152.884 6.736C153.188 7.232 153.34 7.784 153.34 8.392V19H142.516ZM142.636 15.856H150.196V13.288H142.348V15.568C142.348 15.648 142.372 15.72 142.42 15.784C142.484 15.832 142.556 15.856 142.636 15.856ZM158.98 19C158.372 19 157.82 18.848 157.324 18.544C156.828 18.24 156.428 17.84 156.124 17.344C155.82 16.848 155.668 16.296 155.668 15.688V8.392C155.668 7.784 155.82 7.232 156.124 6.736C156.428 6.24 156.828 5.84 157.324 5.536C157.82 5.232 158.372 5.08 158.98 5.08H169.78V8.224H159.1C159.02 8.224 158.948 8.256 158.884 8.32C158.836 8.368 158.812 8.432 158.812 8.512V15.568C158.812 15.648 158.836 15.72 158.884 15.784C158.948 15.832 159.02 15.856 159.1 15.856H169.804V19H158.98ZM175.538 19C174.93 19 174.378 18.848 173.882 18.544C173.386 18.24 172.986 17.84 172.682 17.344C172.378 16.848 172.226 16.296 172.226 15.688V8.392C172.226 7.784 172.378 7.232 172.682 6.736C172.986 6.24 173.386 5.84 173.882 5.536C174.378 5.232 174.93 5.08 175.538 5.08H183.05C183.658 5.08 184.21 5.232 184.706 5.536C185.218 5.84 185.618 6.24 185.906 6.736C186.21 7.232 186.362 7.784 186.362 8.392V13.624H175.37V15.568C175.37 15.648 175.394 15.72 175.442 15.784C175.506 15.832 175.578 15.856 175.658 15.856H186.362V19H175.538ZM175.37 10.792H183.218V8.512C183.218 8.432 183.186 8.368 183.122 8.32C183.074 8.256 183.01 8.224 182.93 8.224H175.658C175.578 8.224 175.506 8.256 175.442 8.32C175.394 8.368 175.37 8.432 175.37 8.512V10.792Z" fill="white"/>
</svg>
